<?xml version="1.0" encoding="UTF-8"?>
<svg version="1.1" viewBox="50 0 600 500" xmlns="http://www.w3.org/2000/svg" xmlns:xlink="http://www.w3.org/1999/xlink">
 <g>
  <path d="m101.24 333.52c-1.7891 0-3.2383 1.4492-3.2383 3.2383v108.37c0 1.7852 1.4492 3.2383 3.2383 3.2383 1.7852 0 3.2383-1.457 3.2383-3.2383l-0.003906-108.37c0.007813-1.7891-1.4492-3.2383-3.2344-3.2383z"/>
  <path d="m549.81 305.54h-25.016v-123.29c0-25.891-9.1016-51.094-25.621-70.965-21.184-25.48-52.328-40.09-85.438-40.09h-128.78c-33.102 0-64.23 14.609-85.422 40.09-16.531 19.863-25.633 45.07-25.633 70.965v123.29h-23.715c-16.645 0-30.191 13.547-30.191 30.191v109.5c0 16.648 13.539 30.195 30.191 30.195h49.27c2.3867 7.7461 9.6055 13.391 18.121 13.391 10.457 0 18.969-8.5078 18.969-18.961l-0.003906-158.73c0-10.457-8.5078-18.961-18.969-18.961-8.5117 0-15.73 5.6406-18.121 13.379h-19.074l0.003906-123.29c0-24.387 8.5742-48.121 24.137-66.824 19.953-23.992 49.27-37.754 80.438-37.754h128.78c31.176 0 60.504 13.758 80.457 37.754 15.559 18.715 24.125 42.441 24.125 66.824l-0.003906 123.29h-17.762c-2.3906-7.7383-9.6094-13.379-18.121-13.379-10.457 0-18.957 8.5078-18.957 18.961v158.73c0 10.457 8.5078 18.961 18.957 18.961 8.5195 0 15.742-5.6445 18.129-13.391h49.258c16.648 0 30.195-13.547 30.195-30.195l-0.003907-109.5c-0.003906-16.645-13.551-30.191-30.199-30.191zm23.715 30.191v109.5c0 13.074-10.641 23.715-23.723 23.715h-48.418l0.003907-156.93h48.418c13.078 0 23.719 10.633 23.719 23.711zm-91.102 146.61c-6.8828 0-12.48-5.6016-12.48-12.48v-158.73c0-6.8828 5.6016-12.48 12.48-12.48 6.8828 0 12.488 5.6016 12.488 12.48v158.73c0 6.8828-5.5977 12.48-12.488 12.48zm-283.81-170.32v156.93h-48.43c-13.074 0-23.711-10.641-23.711-23.715l0.003906-109.5c0-13.074 10.633-23.715 23.711-23.715l48.426-0.003907zm18.965-13.379c6.8867 0 12.488 5.6016 12.488 12.48v158.73c0 6.8828-5.6016 12.48-12.488 12.48-6.8828 0-12.48-5.6016-12.48-12.48l-0.003906-158.73c0-6.8828 5.6016-12.484 12.484-12.484z"/>
  <path d="m598.76 333.52c-1.7852 0-3.2383 1.457-3.2383 3.2383v108.37c0 1.7852 1.457 3.2383 3.2383 3.2383 1.7852 0 3.2383-1.457 3.2383-3.2383v-108.37c0-1.7891-1.457-3.2383-3.2383-3.2383z"/>
 </g>
</svg>
