<?xml version="1.0" encoding="UTF-8"?>
<svg version="1.1" viewBox="200 50 300 450" xmlns="http://www.w3.org/2000/svg" xmlns:xlink="http://www.w3.org/1999/xlink">
 <g>
  <path stroke-width="1" d="m428.96 206.08v-52.078h1.6797c6.7188 0 11.762-5.6016 11.762-11.762v-17.922c0-6.7188-5.6016-11.762-11.762-11.762l-161.28 0.003906c-6.7188 0-11.762 5.6016-11.762 11.762v17.922c0 6.7188 5.6016 11.762 11.762 11.762h1.6797v52.078c0 32.48 22.961 62.16 54.32 73.922-31.922 11.762-54.32 41.441-54.32 73.922v52.078h-1.6797c-6.7188 0-11.762 5.6016-11.762 11.762v17.922c0 6.7188 5.6016 11.762 11.762 11.762h161.28c6.7188 0 11.762-5.6016 11.762-11.762v-17.922c0-6.7188-5.6016-11.762-11.762-11.762h-1.6797v-52.078c0-32.48-22.961-62.16-54.32-73.922 31.918-11.766 54.32-41.445 54.32-73.926zm-154.56-59.359h-1.1211-3.9219c-2.8008 0-5.0391-2.2383-5.0391-5.0391v-17.922c0-2.8008 2.2383-5.0391 5.0391-5.0391h161.28c2.8008 0 5.0391 2.2383 5.0391 5.0391v17.922c0 2.8008-2.2383 5.0391-5.0391 5.0391h-155.12-1.1211zm156.24 266.56c2.8008 0 5.0391 2.2383 5.0391 5.0391v17.922c0 2.8008-2.2383 5.0391-5.0391 5.0391h-161.28c-2.8008 0-5.0391-2.2383-5.0391-5.0391v-17.922c0-2.8008 2.2383-5.0391 5.0391-5.0391zm-69.441-136.64c-1.6797 0.55859-2.8008 1.6797-2.8008 3.3594s1.1211 2.8008 2.8008 3.3594c34.719 7.2812 61.039 37.52 61.039 70.559v52.078l-144.48 0.003906v-52.078c0-33.039 26.32-63.281 61.039-70.559 1.6797-0.55859 2.8008-1.6797 2.8008-3.3594 0-1.6797-1.1211-2.8008-2.8008-3.3594-34.719-7.2812-61.039-37.52-61.039-70.559v-52.078h144.48v52.078c-0.003907 33.035-26.32 63.273-61.043 70.555z"/>
 </g>
</svg>
