<?xml version="1.0" encoding="UTF-8"?>
<svg version="1.1" viewBox="0 100 700 200" xmlns="http://www.w3.org/2000/svg" xmlns:xlink="http://www.w3.org/1999/xlink">
 <g>
  <path d="m572.11 237.92h-388.29c-0.375 0-0.73828 0.085937-1.0742 0.24609l-1.082 0.50781-61.453 29.195c-0.003906 0.003906-0.015625 0.003906-0.023438 0.003906l-20.77 9.8633c-0.86328 0.41406-1.4219 1.293-1.4219 2.2617s0.55859 1.8477 1.4336 2.2617l19.758 9.375h0.011719l63.547 30.191c0.027344 0.011719 0.054688 0.003906 0.085938 0.015625 0.30859 0.13281 0.63672 0.22266 0.99219 0.22266h388.29c16.48 0 29.887-13.406 29.887-29.895v-24.367c0-16.477-13.41-29.883-29.887-29.883zm-362 35.824h326.68v19.164l-205.73-0.003906c-1.3828 0-2.4961 1.1211-2.4961 2.5039 0 1.3828 1.1211 2.5039 2.4961 2.5039h205.73v19.156h-348.87zm326.67-30.816v25.809h-327.05l-22.008-25.812zm-416.18 30.301 3.1875 3.7461-4.6602 9.1016-12.793-6.0781zm8.4141 4.5234c0.46094-0.89453 0.33203-1.9883-0.32422-2.7617l-3.4062-3.9922 56.789-26.98 13.098 15.355 10.41 12.215-22.887 44.676-59.035-28.043zm467.97 14.426c0 13.727-11.16 24.887-24.879 24.887h-30.32v-74.137h30.32c13.727 0 24.879 11.168 24.879 24.887z"/>
  <path d="m311.66 292.9h-23.688c-1.3828 0-2.5039 1.1211-2.5039 2.5039s1.1211 2.5039 2.5039 2.5039h23.688c1.3828 0 2.5039-1.1211 2.5039-2.5039-0.003907-1.3789-1.1211-2.5039-2.5039-2.5039z"/>
 </g>
</svg>
